<?xml version="1.0" encoding="utf-8"?>
<!-- Generator: Adobe Illustrator 26.0.0, SVG Export Plug-In . SVG Version: 6.00 Build 0)  -->
<svg version="1.1" xmlns="http://www.w3.org/2000/svg" xmlns:xlink="http://www.w3.org/1999/xlink" x="0px" y="0px"
	 viewBox="0 0 532 532" style="enable-background:new 0 0 532 532;" xml:space="preserve">
<style type="text/css">
	.st0{fill:#DEA4A6;}
	.st1{fill:#6C63FF;}
	.st2{fill:#3F3D56;}
	.st3{fill:#FFB6B6;}
	.st4{fill:#2F2E41;}
	.st5{fill:#FFFFFF;}
</style>
<g id="Layer_1">
	<path class="st0" d="M270.8,174.6c47.7,0,86.3,38.7,86.3,86.3s-38.7,86.3-86.3,86.3c-45.9,0-78.2-38.4-85-70.9
		c-1.5-7.3-1.5-12.9-1.4-15.5C185.6,225.9,216.4,174.6,270.8,174.6z"/>
	<polygon class="st0" points="221.2,360.1 217.3,320.6 295.2,306.1 341.2,418.1 261.2,510.1 204.2,398.1 	"/>
	<path class="st1" d="M433.6,472.5c-47.2,38.3-105.6,59-167.2,59c-56.2,0-109.8-17.3-154.6-49.5c0.1-0.8,0.2-1.7,0.2-2.5
		c1.2-13,2.2-25.6,2.9-36.1c2.7-40.7,97.6-67.8,97.6-67.8s0.4,0.4,1.3,1.2c5.2,4.6,26.5,21.3,63.8,25.9c33.3,4.2,44.2-15.6,47.5-25
		c1-2.9,1.3-4.8,1.3-4.8l97.6,46.1c6.4,9.1,8.9,28.7,9.4,50.7C433.5,470.7,433.6,471.6,433.6,472.5z"/>
	<path class="st2" d="M454.1,77.9C403.9,27.7,337.1,0,266,0S128.2,27.7,77.9,77.9S0,194.9,0,266c0,64.9,23.1,126.2,65.3,174.6
		c4,4.6,8.2,9.1,12.6,13.5c1,1,2.1,2.1,3.1,3.1c2.8,2.7,5.7,5.4,8.5,7.9c1.8,1.6,3.5,3.1,5.3,4.6c1.4,1.2,2.8,2.4,4.2,3.5
		c0,0,0,0,0.1,0.1c4,3.2,8,6.3,12.1,9.2C156.2,514.7,209.8,532,266,532c61.6,0,120-20.8,167.2-59c3.8-3.1,7.6-6.4,11.3-9.7
		c3.3-3,6.5-6,9.6-9.1c1-1,2-2,3-3c2.7-2.8,5.3-5.6,7.9-8.5C508.3,393.9,532,331.8,532,266C532,194.9,504.3,128.2,454.1,77.9z
		 M464.3,440.1c-2.5,2.8-5.1,5.6-7.7,8.4c-4.1,4.2-8.3,8.4-12.6,12.3c-1.6,1.5-3.3,3-5,4.5c-1.9,1.7-3.9,3.3-5.8,4.9
		c-15.5,12.8-32.5,23.8-50.7,32.7c-7.2,3.5-14.6,6.8-22.1,9.7C331,523.8,299.2,530,266,530c-32,0-62.8-5.7-91.2-16.2
		c-11.7-4.3-22.9-9.4-33.8-15.3c-1.6-0.9-3.2-1.7-4.7-2.6c-8.3-4.7-16.2-9.8-23.9-15.3c-0.2-0.2-0.5-0.4-0.8-0.5
		c-5.5-3.9-10.8-8.1-15.9-12.5c-1.9-1.6-3.7-3.2-5.6-4.8c-3-2.7-5.9-5.4-8.8-8.2c-5.4-5.3-10.6-10.8-15.5-16.5
		C26.1,391.8,2,331.7,2,266C2,120.4,120.4,2,266,2s264,118.4,264,264C530,332.7,505.2,393.6,464.3,440.1z"/>
	<path class="st3" d="M164.2,251.2"/>
	<path class="st0" d="M197.1,284.6c-40.5-51.3-4.4-56.4-4.4-56.4l24.9,44.4L197.1,284.6z"/>
	<path class="st0" d="M351,272.3c26-59.9-10.2-55.6-10.2-55.6L328.1,266L351,272.3z"/>
</g>
<g id="Layer_3">
	<path class="st4" d="M184.5,266.1c0.2,3.1,0.6,6.5,1.3,10.3c1,5.1,2.5,9.4,3.9,13c6-53.6,12.3-67.5,17.6-67.7
		c4.3-0.2,4.9,9.1,13.4,12.9c14.2,6.3,28.9-12.6,53.9-19.1c10.9-2.8,26.7-4.1,48.2,3.3c2.3-1.8,5.6-3.7,8.6-2.9
		c5.9,1.6,6.4,12.2,11,27.7c3.3,11.2,10,29.3,13,28.7c2.7-0.5,2.5-15.7,0.4-27.2c-0.4-2.3-1.6-8-4.2-14.9
		c-2.7-7.2-5.7-12.2-6.4-13.6c-4-6.9-10.3-21.5-20.9-53.9c-21-27.5-33.9-32-42-30c-5.4,1.3-9.5,5.7-17.2,5
		c-8.2-0.7-11.4-6.5-17.8-11c-17.6-12.3-32.9,2.6-64-6c-17.3-4.8-21.1-11.8-25-9c-12,8.5,30.2,94,29,120c-0.3,6.7-0.9,14.2-0.9,14.2
		C185.7,253.9,185.1,260.8,184.5,266.1z"/>
</g>
<g id="Layer_2">
	<path class="st5" d="M240.4,301.8c-2.5,5.9,18.1,28.3,40.5,25.8c20.9-2.4,35.9-25.5,32.4-31c-2.4-3.8-12.4,2.6-37.7,4.3
		C251.8,302.4,241.9,298.1,240.4,301.8z"/>
</g>
</svg>
